<svg width="18" height="23" viewBox="0 0 18 23" fill="none" xmlns="http://www.w3.org/2000/svg">
<path fill-rule="evenodd" clip-rule="evenodd" d="M12.213 16.2501V11.4256V10.6565V7.77297H11.444V10.6565V11.4293V13.4181V16.2501C11.444 17.6623 10.8413 18.9304 9.87651 19.8176C10.1204 19.9508 10.3756 20.058 10.6417 20.143C10.9487 19.825 11.2183 19.4701 11.444 19.0856C11.932 18.2539 12.2131 17.2853 12.2131 16.2501H12.213ZM16.6862 13.4181V16.2501C16.6862 18.8011 14.7158 20.8897 12.213 21.0782C12.091 21.0857 11.9689 21.0894 11.8469 21.0894C11.7101 21.0894 11.577 21.0857 11.444 21.0747C10.9337 21.034 10.4457 20.912 9.99111 20.7235C9.72106 20.6124 9.46611 20.4756 9.22577 20.3204C7.89478 19.4628 7.01132 17.9691 7.00759 16.2723C7.00759 16.2649 7.00759 16.2574 7.00759 16.2501V16.2316V13.4181V11.4293V10.6565V7.77297V7.00764H6.23853V7.77297V10.6565V11.4256V16.2501C6.23853 17.2853 6.51956 18.2539 7.00759 19.0856C7.38101 19.7215 7.87635 20.2798 8.46044 20.7234C8.70082 20.9045 8.95592 21.0672 9.22577 21.2114C9.89499 21.5664 10.6491 21.7881 11.444 21.8435C11.577 21.8546 11.7101 21.8583 11.8469 21.8583C11.9689 21.8583 12.091 21.8546 12.213 21.8473C14.1205 21.7215 15.7693 20.6458 16.6862 19.0856C17.1742 18.2539 17.4515 17.2853 17.4515 16.2501V7.77297H16.6862V13.4181ZM7.66558 21.0894C7.62861 21.0597 7.59541 21.0265 7.55843 20.997C7.37724 21.034 7.19246 21.0597 7.00754 21.0746C6.8745 21.0856 6.74141 21.0893 6.60465 21.0893C6.48259 21.0893 6.36053 21.0856 6.23848 21.0781C3.74318 20.8896 1.77637 18.812 1.76534 16.2722C1.76534 16.2648 1.76534 16.2573 1.76534 16.25C1.76534 16.2463 1.76534 16.2388 1.76534 16.2315V13.418V1.76892H6.23848V6.23853V7.00386H7.00754V6.23853V1.76892V1H6.23848H1.76534H1V1.76892V16.25C1 17.2852 1.27731 18.2538 1.76534 19.0855C2.68205 20.6457 4.331 21.7214 6.23848 21.8472C6.36053 21.8545 6.48259 21.8582 6.60465 21.8582C6.74141 21.8582 6.8745 21.8545 7.00754 21.8434C7.46232 21.8102 7.90592 21.7251 8.32362 21.5883C8.09819 21.4405 7.88375 21.2778 7.68049 21.104C7.67676 21.1003 7.66931 21.0931 7.66558 21.0893V21.0894ZM7.00754 16.2501V16.2316C7.00754 16.2388 7.00754 16.2463 7.00754 16.2501ZM16.6862 6.23858H12.213V1.76896H16.6862V6.23858ZM12.213 7.00391H16.6862H17.4515V6.23858V1.76896V1.00005H16.6862H12.213H11.444V1.76896V6.23858V7.00391H12.213Z" fill="#202020" stroke="#202020" stroke-miterlimit="2.61313"/>
</svg>
